<?xml version="1.0" encoding="utf-8"?>
<!-- Svg Vector Icons : http://www.onlinewebfonts.com/icon -->
<!DOCTYPE svg PUBLIC "-//W3C//DTD SVG 1.1//EN" "http://www.w3.org/Graphics/SVG/1.1/DTD/svg11.dtd">
<svg version="1.1" xmlns="http://www.w3.org/2000/svg" xmlns:xlink="http://www.w3.org/1999/xlink" x="0px" y="0px" viewBox="0 0 1000 1000" enable-background="new 0 0 1000 1000" xml:space="preserve">
<metadata> Svg Vector Icons : http://www.onlinewebfonts.com/icon </metadata>
<g><g transform="translate(0.000000,511.000000) scale(0.100000,-0.100000)"><path d="M974.7,3375.1c-105.3-28.7-212.5-120.6-260.3-222c-26.8-61.3-30.6-327.3-36.4-2894.1l-3.8-2829H387.1H100v-111v-109.1l250.7-197.1l250.7-195.2H5000h4398.5l250.8,195.2l250.7,197.1v109.1v111h-287.1h-287.1V205.4c0,1983-5.7,2802.2-21,2874.9c-30.6,143.6-157,269.9-300.5,300.5C8847.3,3413.3,1099.1,3407.6,974.7,3375.1z M8985.1,3061.2c21.1-21.1,24.9-553.2,24.9-2823.2v-2798.4l-1560-5.7l-1561.9-3.8l-34.5-67c-21-38.3-68.9-86.1-105.3-111c-67-42.1-78.5-42.1-748.4-42.1c-648.9,0-683.3,1.9-746.5,38.3c-36.4,23-84.2,72.7-105.3,111L4110-2570H2555.7H999.6V243.7c0,2656.7,1.9,2813.7,34.4,2830.9c21.1,13.4,1315,19.1,3979.3,15.3C8221.4,3086,8964,3082.2,8985.1,3061.2z"/><path d="M5231.6,2383.6c-9.6-24.9-160.8-419.2-336.9-876.6c-176.1-457.5-325.4-847.9-331.1-867.1c-7.7-30.6,1.9-34.5,93.8-28.7l101.4,5.7l250.7,650.8c137.8,357.9,294.8,765.6,348.4,905.3l97.6,252.7h-103.3C5262.2,2425.7,5245,2419.9,5231.6,2383.6z"/><path d="M3832.4,1750l-564.6-290.9v-82.3v-82.3L3842,997.8C4157.8,837,4423.9,703,4431.5,703c7.7,0,13.4,45.9,9.6,101.4l-5.7,99.5l-468.9,237.3l-468.9,237.3l474.7,235.4l472.8,237.3v95.7c0,65.1-7.7,95.7-23,95.7C4408.6,2041,4142.5,1910.8,3832.4,1750z"/><path d="M5555.1,1947.2v-95.7l468.9-233.5c258.4-130.2,468.9-239.3,468.9-245s-210.5-112.9-465.1-239.3L5564.6,904l-5.7-99.5c-3.8-55.5,1.9-101.4,9.6-101.4c7.6,0,273.7,132.1,589.5,294.8l574.2,294.8l5.7,82.3l3.8,84.2l-572.3,292.8c-313.9,158.9-581.9,290.9-593.4,290.9C5562.7,2042.9,5555.1,2004.6,5555.1,1947.2z"/><path d="M3430.5-24.3V-120h507.2h507.2v95.7v95.7h-507.2h-507.2V-24.3z"/><path d="M4904.3-24.3V-120h181.8H5268v95.7v95.7h-181.8h-181.8V-24.3z"/><path d="M5708.2-24.3V-120H5890h181.8v95.7v95.7H5890h-181.8V-24.3z"/><path d="M3430.5-349.7v-95.7H3775h344.5v95.7v95.7H3775h-344.5V-349.7z"/><path d="M4406.6-349.7v-95.7h344.5h344.5v95.7v95.7h-344.5h-344.5V-349.7z"/><path d="M5229.7-349.7v-95.7h344.5h344.5v95.7v95.7h-344.5h-344.5V-349.7z"/><path d="M6205.9-349.7v-95.7h344.5h344.5v95.7v95.7h-344.5h-344.5V-349.7z"/><path d="M3621.9-703.8v-105.3h327.3h325.4l-5.7,101.4l-5.7,99.5l-319.7,5.7l-321.6,3.8V-703.8z"/><path d="M3430.5-1000.5v-95.7H3775h344.5v95.7v95.7H3775h-344.5V-1000.5z"/><path d="M4578.9-1000.5v-95.7h258.4h258.4v95.7v95.7h-258.4h-258.4V-1000.5z"/><path d="M3430.5-1325.9v-95.7h832.6h832.6v95.7v95.7h-832.6h-832.6V-1325.9z"/><path d="M5555.1-1325.9v-95.7h344.5h344.5v95.7v95.7h-344.5h-344.5V-1325.9z"/><path d="M3258.2-1651.3v-95.7h1004.9H5268v95.7v95.7H4263.1H3258.2V-1651.3z"/><path d="M5880.5-1651.3v-95.7H6225h344.5v95.7v95.7H6225h-344.5V-1651.3z"/></g></g>
</svg>